<svg id="visual" viewBox="0 0 960 540" width="960" height="540" xmlns="http://www.w3.org/2000/svg" xmlns:xlink="http://www.w3.org/1999/xlink" version="1.1"><rect x="0" y="0" width="960" height="540" fill="#1a368b"></rect><path d="M0 142L20 142.3C40 142.7 80 143.3 120 141C160 138.7 200 133.3 240 135.3C280 137.3 320 146.7 360 151.7C400 156.7 440 157.3 480 153.5C520 149.7 560 141.3 600 139.5C640 137.7 680 142.3 720 143.3C760 144.3 800 141.7 840 141.5C880 141.3 920 143.7 940 144.8L960 146L960 0L940 0C920 0 880 0 840 0C800 0 760 0 720 0C680 0 640 0 600 0C560 0 520 0 480 0C440 0 400 0 360 0C320 0 280 0 240 0C200 0 160 0 120 0C80 0 40 0 20 0L0 0Z" fill="#354287"></path><path d="M0 118L20 118.3C40 118.7 80 119.3 120 121.7C160 124 200 128 240 126.8C280 125.7 320 119.3 360 118.3C400 117.3 440 121.7 480 123.5C520 125.3 560 124.7 600 121.8C640 119 680 114 720 114.2C760 114.3 800 119.7 840 122.2C880 124.7 920 124.3 940 124.2L960 124L960 0L940 0C920 0 880 0 840 0C800 0 760 0 720 0C680 0 640 0 600 0C560 0 520 0 480 0C440 0 400 0 360 0C320 0 280 0 240 0C200 0 160 0 120 0C80 0 40 0 20 0L0 0Z" fill="#45488e"></path><path d="M0 115L20 113.3C40 111.7 80 108.3 120 107.5C160 106.7 200 108.3 240 107.2C280 106 320 102 360 99C400 96 440 94 480 93.3C520 92.7 560 93.3 600 95.5C640 97.7 680 101.3 720 101.5C760 101.7 800 98.3 840 97.7C880 97 920 99 940 100L960 101L960 0L940 0C920 0 880 0 840 0C800 0 760 0 720 0C680 0 640 0 600 0C560 0 520 0 480 0C440 0 400 0 360 0C320 0 280 0 240 0C200 0 160 0 120 0C80 0 40 0 20 0L0 0Z" fill="#534e94"></path><path d="M0 89L20 88C40 87 80 85 120 86.5C160 88 200 93 240 93.7C280 94.3 320 90.7 360 88.3C400 86 440 85 480 87.5C520 90 560 96 600 97.2C640 98.3 680 94.7 720 94.2C760 93.7 800 96.3 840 94.8C880 93.3 920 87.7 940 84.8L960 82L960 0L940 0C920 0 880 0 840 0C800 0 760 0 720 0C680 0 640 0 600 0C560 0 520 0 480 0C440 0 400 0 360 0C320 0 280 0 240 0C200 0 160 0 120 0C80 0 40 0 20 0L0 0Z" fill="#61559b"></path><path d="M0 77L20 77.2C40 77.3 80 77.7 120 78.2C160 78.7 200 79.3 240 79.3C280 79.3 320 78.7 360 75.2C400 71.7 440 65.3 480 65.7C520 66 560 73 600 73.8C640 74.7 680 69.3 720 65.5C760 61.7 800 59.3 840 61.8C880 64.3 920 71.7 940 75.3L960 79L960 0L940 0C920 0 880 0 840 0C800 0 760 0 720 0C680 0 640 0 600 0C560 0 520 0 480 0C440 0 400 0 360 0C320 0 280 0 240 0C200 0 160 0 120 0C80 0 40 0 20 0L0 0Z" fill="#6f5ba1"></path><path d="M0 61L20 58C40 55 80 49 120 50C160 51 200 59 240 60.8C280 62.7 320 58.3 360 56.3C400 54.3 440 54.7 480 51.8C520 49 560 43 600 42.3C640 41.7 680 46.3 720 49.5C760 52.7 800 54.3 840 53.5C880 52.7 920 49.3 940 47.7L960 46L960 0L940 0C920 0 880 0 840 0C800 0 760 0 720 0C680 0 640 0 600 0C560 0 520 0 480 0C440 0 400 0 360 0C320 0 280 0 240 0C200 0 160 0 120 0C80 0 40 0 20 0L0 0Z" fill="#7c62a7"></path><path d="M0 43L20 44.2C40 45.3 80 47.7 120 48.7C160 49.7 200 49.3 240 49.5C280 49.7 320 50.3 360 46.2C400 42 440 33 480 31.5C520 30 560 36 600 36.8C640 37.7 680 33.3 720 30.5C760 27.7 800 26.3 840 29.7C880 33 920 41 940 45L960 49L960 0L940 0C920 0 880 0 840 0C800 0 760 0 720 0C680 0 640 0 600 0C560 0 520 0 480 0C440 0 400 0 360 0C320 0 280 0 240 0C200 0 160 0 120 0C80 0 40 0 20 0L0 0Z" fill="#8968ad"></path><path d="M0 12L20 11.3C40 10.7 80 9.3 120 8.7C160 8 200 8 240 11.7C280 15.3 320 22.7 360 23.7C400 24.7 440 19.3 480 14.5C520 9.7 560 5.3 600 3.5C640 1.7 680 2.3 720 7.2C760 12 800 21 840 23.2C880 25.3 920 20.7 940 18.3L960 16L960 0L940 0C920 0 880 0 840 0C800 0 760 0 720 0C680 0 640 0 600 0C560 0 520 0 480 0C440 0 400 0 360 0C320 0 280 0 240 0C200 0 160 0 120 0C80 0 40 0 20 0L0 0Z" fill="#966fb3"></path></svg>