<svg id="visual" viewBox="0 0 960 540" width="960" height="540" xmlns="http://www.w3.org/2000/svg" xmlns:xlink="http://www.w3.org/1999/xlink" version="1.1"><rect x="0" y="0" width="960" height="540" fill="#ffffff"></rect><path d="M0 396L20 395.7C40 395.3 80 394.7 120 397C160 399.3 200 404.7 240 402.7C280 400.7 320 391.3 360 386.3C400 381.3 440 380.7 480 384.5C520 388.3 560 396.7 600 398.5C640 400.3 680 395.7 720 394.7C760 393.7 800 396.3 840 396.5C880 396.7 920 394.3 940 393.2L960 392L960 541L940 541C920 541 880 541 840 541C800 541 760 541 720 541C680 541 640 541 600 541C560 541 520 541 480 541C440 541 400 541 360 541C320 541 280 541 240 541C200 541 160 541 120 541C80 541 40 541 20 541L0 541Z" fill="#93ffe8"></path><path d="M0 420L20 419.7C40 419.3 80 418.7 120 416.3C160 414 200 410 240 411.2C280 412.3 320 418.7 360 419.7C400 420.7 440 416.3 480 414.5C520 412.7 560 413.3 600 416.2C640 419 680 424 720 423.8C760 423.7 800 418.3 840 415.8C880 413.3 920 413.7 940 413.8L960 414L960 541L940 541C920 541 880 541 840 541C800 541 760 541 720 541C680 541 640 541 600 541C560 541 520 541 480 541C440 541 400 541 360 541C320 541 280 541 240 541C200 541 160 541 120 541C80 541 40 541 20 541L0 541Z" fill="#69f1f0"></path><path d="M0 423L20 424.7C40 426.3 80 429.7 120 430.5C160 431.3 200 429.7 240 430.8C280 432 320 436 360 439C400 442 440 444 480 444.7C520 445.3 560 444.7 600 442.5C640 440.3 680 436.7 720 436.5C760 436.3 800 439.7 840 440.3C880 441 920 439 940 438L960 437L960 541L940 541C920 541 880 541 840 541C800 541 760 541 720 541C680 541 640 541 600 541C560 541 520 541 480 541C440 541 400 541 360 541C320 541 280 541 240 541C200 541 160 541 120 541C80 541 40 541 20 541L0 541Z" fill="#3ce2f7"></path><path d="M0 449L20 450C40 451 80 453 120 451.5C160 450 200 445 240 444.3C280 443.7 320 447.3 360 449.7C400 452 440 453 480 450.5C520 448 560 442 600 440.8C640 439.7 680 443.3 720 443.8C760 444.3 800 441.7 840 443.2C880 444.7 920 450.3 940 453.2L960 456L960 541L940 541C920 541 880 541 840 541C800 541 760 541 720 541C680 541 640 541 600 541C560 541 520 541 480 541C440 541 400 541 360 541C320 541 280 541 240 541C200 541 160 541 120 541C80 541 40 541 20 541L0 541Z" fill="#08d2fd"></path><path d="M0 461L20 460.8C40 460.7 80 460.3 120 459.8C160 459.3 200 458.7 240 458.7C280 458.7 320 459.3 360 462.8C400 466.3 440 472.7 480 472.3C520 472 560 465 600 464.2C640 463.3 680 468.7 720 472.5C760 476.3 800 478.7 840 476.2C880 473.7 920 466.3 940 462.7L960 459L960 541L940 541C920 541 880 541 840 541C800 541 760 541 720 541C680 541 640 541 600 541C560 541 520 541 480 541C440 541 400 541 360 541C320 541 280 541 240 541C200 541 160 541 120 541C80 541 40 541 20 541L0 541Z" fill="#00c0ff"></path><path d="M0 477L20 480C40 483 80 489 120 488C160 487 200 479 240 477.2C280 475.3 320 479.7 360 481.7C400 483.7 440 483.3 480 486.2C520 489 560 495 600 495.7C640 496.3 680 491.7 720 488.5C760 485.3 800 483.7 840 484.5C880 485.3 920 488.7 940 490.3L960 492L960 541L940 541C920 541 880 541 840 541C800 541 760 541 720 541C680 541 640 541 600 541C560 541 520 541 480 541C440 541 400 541 360 541C320 541 280 541 240 541C200 541 160 541 120 541C80 541 40 541 20 541L0 541Z" fill="#00acff"></path><path d="M0 495L20 493.8C40 492.7 80 490.3 120 489.3C160 488.3 200 488.7 240 488.5C280 488.3 320 487.7 360 491.8C400 496 440 505 480 506.5C520 508 560 502 600 501.2C640 500.3 680 504.7 720 507.5C760 510.3 800 511.7 840 508.3C880 505 920 497 940 493L960 489L960 541L940 541C920 541 880 541 840 541C800 541 760 541 720 541C680 541 640 541 600 541C560 541 520 541 480 541C440 541 400 541 360 541C320 541 280 541 240 541C200 541 160 541 120 541C80 541 40 541 20 541L0 541Z" fill="#0096ff"></path><path d="M0 526L20 526.7C40 527.3 80 528.7 120 529.3C160 530 200 530 240 526.3C280 522.7 320 515.3 360 514.3C400 513.3 440 518.7 480 523.5C520 528.3 560 532.7 600 534.5C640 536.3 680 535.7 720 530.8C760 526 800 517 840 514.8C880 512.7 920 517.3 940 519.7L960 522L960 541L940 541C920 541 880 541 840 541C800 541 760 541 720 541C680 541 640 541 600 541C560 541 520 541 480 541C440 541 400 541 360 541C320 541 280 541 240 541C200 541 160 541 120 541C80 541 40 541 20 541L0 541Z" fill="#377cfb"></path></svg>