<svg id="visual" viewBox="0 0 960 540" width="960" height="540" xmlns="http://www.w3.org/2000/svg" xmlns:xlink="http://www.w3.org/1999/xlink" version="1.1"><rect x="0" y="0" width="960" height="540" fill="#001220"></rect><path d="M0 338L16 340C32 342 64 346 96 348.2C128 350.3 160 350.7 192 345.2C224 339.7 256 328.3 288 322.7C320 317 352 317 384 323.5C416 330 448 343 480 349C512 355 544 354 576 346.2C608 338.3 640 323.7 672 320.5C704 317.3 736 325.7 768 332C800 338.3 832 342.7 864 341.7C896 340.7 928 334.3 944 331.2L960 328L960 541L944 541C928 541 896 541 864 541C832 541 800 541 768 541C736 541 704 541 672 541C640 541 608 541 576 541C544 541 512 541 480 541C448 541 416 541 384 541C352 541 320 541 288 541C256 541 224 541 192 541C160 541 128 541 96 541C64 541 32 541 16 541L0 541Z" fill="#7e04ab"></path><path d="M0 366L16 364C32 362 64 358 96 355.5C128 353 160 352 192 350.2C224 348.3 256 345.7 288 345.2C320 344.7 352 346.3 384 352.2C416 358 448 368 480 368C512 368 544 358 576 355.7C608 353.3 640 358.7 672 360.2C704 361.7 736 359.3 768 356.5C800 353.7 832 350.3 864 352.3C896 354.3 928 361.7 944 365.3L960 369L960 541L944 541C928 541 896 541 864 541C832 541 800 541 768 541C736 541 704 541 672 541C640 541 608 541 576 541C544 541 512 541 480 541C448 541 416 541 384 541C352 541 320 541 288 541C256 541 224 541 192 541C160 541 128 541 96 541C64 541 32 541 16 541L0 541Z" fill="#9817ab"></path><path d="M0 394L16 392.2C32 390.3 64 386.7 96 385.5C128 384.3 160 385.7 192 385.3C224 385 256 383 288 382.5C320 382 352 383 384 384C416 385 448 386 480 384.3C512 382.7 544 378.3 576 376.5C608 374.7 640 375.3 672 377.8C704 380.3 736 384.7 768 386.3C800 388 832 387 864 384.5C896 382 928 378 944 376L960 374L960 541L944 541C928 541 896 541 864 541C832 541 800 541 768 541C736 541 704 541 672 541C640 541 608 541 576 541C544 541 512 541 480 541C448 541 416 541 384 541C352 541 320 541 288 541C256 541 224 541 192 541C160 541 128 541 96 541C64 541 32 541 16 541L0 541Z" fill="#ae29ac"></path><path d="M0 426L16 427.2C32 428.3 64 430.7 96 430.5C128 430.3 160 427.7 192 428C224 428.3 256 431.7 288 431.2C320 430.7 352 426.3 384 422C416 417.7 448 413.3 480 413.5C512 413.7 544 418.3 576 422.7C608 427 640 431 672 427.3C704 423.7 736 412.3 768 407C800 401.7 832 402.3 864 405.7C896 409 928 415 944 418L960 421L960 541L944 541C928 541 896 541 864 541C832 541 800 541 768 541C736 541 704 541 672 541C640 541 608 541 576 541C544 541 512 541 480 541C448 541 416 541 384 541C352 541 320 541 288 541C256 541 224 541 192 541C160 541 128 541 96 541C64 541 32 541 16 541L0 541Z" fill="#c23bad"></path><path d="M0 443L16 445.3C32 447.7 64 452.3 96 450.3C128 448.3 160 439.7 192 437.7C224 435.7 256 440.3 288 441.7C320 443 352 441 384 439.2C416 437.3 448 435.7 480 438.5C512 441.3 544 448.7 576 449.3C608 450 640 444 672 443.8C704 443.7 736 449.3 768 448.7C800 448 832 441 864 440C896 439 928 444 944 446.5L960 449L960 541L944 541C928 541 896 541 864 541C832 541 800 541 768 541C736 541 704 541 672 541C640 541 608 541 576 541C544 541 512 541 480 541C448 541 416 541 384 541C352 541 320 541 288 541C256 541 224 541 192 541C160 541 128 541 96 541C64 541 32 541 16 541L0 541Z" fill="#d44daf"></path><path d="M0 465L16 467.7C32 470.3 64 475.7 96 477.8C128 480 160 479 192 477.3C224 475.7 256 473.3 288 470.8C320 468.3 352 465.7 384 468.7C416 471.7 448 480.3 480 480.2C512 480 544 471 576 467C608 463 640 464 672 465.3C704 466.7 736 468.3 768 468C800 467.7 832 465.3 864 464.3C896 463.3 928 463.7 944 463.8L960 464L960 541L944 541C928 541 896 541 864 541C832 541 800 541 768 541C736 541 704 541 672 541C640 541 608 541 576 541C544 541 512 541 480 541C448 541 416 541 384 541C352 541 320 541 288 541C256 541 224 541 192 541C160 541 128 541 96 541C64 541 32 541 16 541L0 541Z" fill="#e55fb1"></path><path d="M0 514L16 510.5C32 507 64 500 96 498.3C128 496.7 160 500.3 192 504C224 507.7 256 511.3 288 509.5C320 507.7 352 500.3 384 496.8C416 493.3 448 493.7 480 495.3C512 497 544 500 576 499.7C608 499.3 640 495.7 672 495.7C704 495.7 736 499.3 768 500.7C800 502 832 501 864 500.5C896 500 928 500 944 500L960 500L960 541L944 541C928 541 896 541 864 541C832 541 800 541 768 541C736 541 704 541 672 541C640 541 608 541 576 541C544 541 512 541 480 541C448 541 416 541 384 541C352 541 320 541 288 541C256 541 224 541 192 541C160 541 128 541 96 541C64 541 32 541 16 541L0 541Z" fill="#f471b5"></path></svg>