<svg id="visual" viewBox="0 0 960 540" width="960" height="540" xmlns="http://www.w3.org/2000/svg" xmlns:xlink="http://www.w3.org/1999/xlink" version="1.1"><rect x="0" y="0" width="960" height="540" fill="#001220"></rect><path d="M0 200L16 198C32 196 64 192 96 189.8C128 187.7 160 187.3 192 192.8C224 198.3 256 209.7 288 215.3C320 221 352 221 384 214.5C416 208 448 195 480 189C512 183 544 184 576 191.8C608 199.7 640 214.3 672 217.5C704 220.7 736 212.3 768 206C800 199.7 832 195.3 864 196.3C896 197.3 928 203.7 944 206.8L960 210L960 0L944 0C928 0 896 0 864 0C832 0 800 0 768 0C736 0 704 0 672 0C640 0 608 0 576 0C544 0 512 0 480 0C448 0 416 0 384 0C352 0 320 0 288 0C256 0 224 0 192 0C160 0 128 0 96 0C64 0 32 0 16 0L0 0Z" fill="#7e04ab"></path><path d="M0 172L16 174C32 176 64 180 96 182.5C128 185 160 186 192 187.8C224 189.7 256 192.3 288 192.8C320 193.3 352 191.7 384 185.8C416 180 448 170 480 170C512 170 544 180 576 182.3C608 184.7 640 179.3 672 177.8C704 176.3 736 178.7 768 181.5C800 184.3 832 187.7 864 185.7C896 183.7 928 176.3 944 172.7L960 169L960 0L944 0C928 0 896 0 864 0C832 0 800 0 768 0C736 0 704 0 672 0C640 0 608 0 576 0C544 0 512 0 480 0C448 0 416 0 384 0C352 0 320 0 288 0C256 0 224 0 192 0C160 0 128 0 96 0C64 0 32 0 16 0L0 0Z" fill="#9817ab"></path><path d="M0 144L16 145.8C32 147.7 64 151.3 96 152.5C128 153.7 160 152.3 192 152.7C224 153 256 155 288 155.5C320 156 352 155 384 154C416 153 448 152 480 153.7C512 155.3 544 159.7 576 161.5C608 163.3 640 162.7 672 160.2C704 157.7 736 153.3 768 151.7C800 150 832 151 864 153.5C896 156 928 160 944 162L960 164L960 0L944 0C928 0 896 0 864 0C832 0 800 0 768 0C736 0 704 0 672 0C640 0 608 0 576 0C544 0 512 0 480 0C448 0 416 0 384 0C352 0 320 0 288 0C256 0 224 0 192 0C160 0 128 0 96 0C64 0 32 0 16 0L0 0Z" fill="#ae29ac"></path><path d="M0 112L16 110.8C32 109.7 64 107.3 96 107.5C128 107.7 160 110.3 192 110C224 109.7 256 106.3 288 106.8C320 107.3 352 111.7 384 116C416 120.3 448 124.7 480 124.5C512 124.3 544 119.7 576 115.3C608 111 640 107 672 110.7C704 114.3 736 125.7 768 131C800 136.3 832 135.7 864 132.3C896 129 928 123 944 120L960 117L960 0L944 0C928 0 896 0 864 0C832 0 800 0 768 0C736 0 704 0 672 0C640 0 608 0 576 0C544 0 512 0 480 0C448 0 416 0 384 0C352 0 320 0 288 0C256 0 224 0 192 0C160 0 128 0 96 0C64 0 32 0 16 0L0 0Z" fill="#c23bad"></path><path d="M0 95L16 92.7C32 90.3 64 85.7 96 87.7C128 89.7 160 98.3 192 100.3C224 102.3 256 97.7 288 96.3C320 95 352 97 384 98.8C416 100.7 448 102.3 480 99.5C512 96.7 544 89.3 576 88.7C608 88 640 94 672 94.2C704 94.3 736 88.7 768 89.3C800 90 832 97 864 98C896 99 928 94 944 91.5L960 89L960 0L944 0C928 0 896 0 864 0C832 0 800 0 768 0C736 0 704 0 672 0C640 0 608 0 576 0C544 0 512 0 480 0C448 0 416 0 384 0C352 0 320 0 288 0C256 0 224 0 192 0C160 0 128 0 96 0C64 0 32 0 16 0L0 0Z" fill="#d44daf"></path><path d="M0 73L16 70.3C32 67.7 64 62.3 96 60.2C128 58 160 59 192 60.7C224 62.3 256 64.7 288 67.2C320 69.7 352 72.3 384 69.3C416 66.3 448 57.7 480 57.8C512 58 544 67 576 71C608 75 640 74 672 72.7C704 71.3 736 69.7 768 70C800 70.3 832 72.7 864 73.7C896 74.7 928 74.3 944 74.2L960 74L960 0L944 0C928 0 896 0 864 0C832 0 800 0 768 0C736 0 704 0 672 0C640 0 608 0 576 0C544 0 512 0 480 0C448 0 416 0 384 0C352 0 320 0 288 0C256 0 224 0 192 0C160 0 128 0 96 0C64 0 32 0 16 0L0 0Z" fill="#e55fb1"></path><path d="M0 24L16 27.5C32 31 64 38 96 39.7C128 41.3 160 37.7 192 34C224 30.3 256 26.7 288 28.5C320 30.3 352 37.7 384 41.2C416 44.7 448 44.3 480 42.7C512 41 544 38 576 38.3C608 38.7 640 42.3 672 42.3C704 42.3 736 38.7 768 37.3C800 36 832 37 864 37.5C896 38 928 38 944 38L960 38L960 0L944 0C928 0 896 0 864 0C832 0 800 0 768 0C736 0 704 0 672 0C640 0 608 0 576 0C544 0 512 0 480 0C448 0 416 0 384 0C352 0 320 0 288 0C256 0 224 0 192 0C160 0 128 0 96 0C64 0 32 0 16 0L0 0Z" fill="#f471b5"></path></svg>